<svg width="93" height="18" viewBox="0 0 93 18" fill="none" xmlns="http://www.w3.org/2000/svg">
<path d="M92.1551 0.587891H71.5156V17.0995H92.1551V0.587891Z" fill="#532322"/>
<path d="M4.91647 9.50418V16.4117H1.78419V9.50418H0.653076V7.07609H1.78419V5.23411C1.78419 4.18764 1.89301 2.99455 2.8718 1.98993C3.50258 1.34078 4.39443 0.922363 5.59085 0.922363C6.28686 0.922363 6.85233 1.04789 7.37455 1.23617V3.87366C7.02655 3.66427 6.56964 3.51784 6.17804 3.51784C5.69959 3.51784 5.39501 3.72721 5.26448 3.89458C4.91647 4.33426 4.91647 5.06683 4.91647 5.50625V7.07617H7.39626V9.50428H4.91647V9.50418Z" fill="#532322"/>
<path d="M16.3709 15.2188C15.6397 16.056 14.3969 16.7261 12.8065 16.7261C11.2164 16.7261 9.97339 16.0561 9.24222 15.2188C8.41982 14.2767 8.01758 12.9371 8.01758 11.7443C8.01758 10.5511 8.41982 9.21148 9.24222 8.26944C9.97339 7.43218 11.2164 6.76245 12.8065 6.76245C14.3969 6.76245 15.6397 7.43209 16.3709 8.26944C17.1934 9.21148 17.5955 10.5512 17.5955 11.7443C17.5955 12.9372 17.1934 14.2768 16.3709 15.2188ZM11.3261 9.9858C10.9422 10.4254 10.7229 10.9904 10.7229 11.7442C10.7229 12.6024 11.0153 13.1465 11.3261 13.5023C11.655 13.879 12.1303 14.1722 12.8248 14.1722C13.4098 14.1722 13.9034 13.9419 14.2872 13.5023C14.6709 13.0626 14.8903 12.4977 14.8903 11.7442C14.8903 10.9904 14.6709 10.4254 14.2872 9.9858C13.9034 9.54638 13.4098 9.31617 12.8066 9.31617C12.2034 9.31617 11.7099 9.54638 11.3262 9.9858H11.3261Z" fill="#532322"/>
<path d="M22.0558 11.3247L18.8205 7.07544H22.1837L23.7008 9.23149L25.2179 7.07544H28.5811L25.3459 11.3247L29.3305 16.4111H25.9306L23.7008 13.3969L21.4709 16.4111H18.0711L22.0558 11.3247Z" fill="#532322"/>
<path d="M30.3904 7.07552H33.0224V8.164C33.6987 6.99201 34.6857 6.84521 35.3072 6.84521C35.6546 6.84521 36.2943 6.88724 36.8427 7.26407C37.263 7.53612 37.6104 7.99672 37.8296 8.56193C38.0308 8.18492 38.3415 7.7455 38.8716 7.36867C39.4382 6.97082 39.9683 6.84521 40.608 6.84521C41.5952 6.84521 42.3993 7.18021 42.8928 7.72467C43.6788 8.58285 43.7337 9.83861 43.7337 10.5086V16.4112H41.1016V11.6806C41.1016 11.1991 41.1016 10.3618 40.7542 9.85945C40.5349 9.54564 40.1878 9.35709 39.8038 9.35709C39.3651 9.35709 38.9994 9.58739 38.7802 9.92238C38.4328 10.4247 38.3781 11.1573 38.3781 11.7644V16.4111H35.7461V11.5549C35.7461 10.9269 35.7278 10.1943 35.3257 9.73375C35.0515 9.41994 34.7225 9.357 34.4483 9.357C34.1009 9.357 33.7904 9.46178 33.5344 9.73375C33.0408 10.2781 33.0226 11.3246 33.0226 11.6387V16.4111H30.3906V7.07543L30.3904 7.07552Z" fill="#532322"/>
<path d="M47.2985 1.34204C48.1576 1.34204 48.8339 2.11672 48.8339 3.10051C48.8339 4.08421 48.1576 4.85862 47.2985 4.85862C46.4394 4.85862 45.7632 4.08421 45.7632 3.10051C45.7632 2.11672 46.4394 1.34204 47.2985 1.34204ZM48.8339 7.25676V16.5924L45.9826 16.413V7.07735L48.8339 7.25676Z" fill="#532322"/>
<path d="M50.8438 7.07544H53.4758V8.18485C54.2801 7.01277 55.2306 6.82422 55.9982 6.82422C56.7111 6.82422 57.6433 6.97075 58.3378 7.76626C59.1056 8.64536 59.1603 9.75468 59.1603 10.5085V16.4111H56.5283V11.6179C56.5283 11.0109 56.5102 10.2362 56.0897 9.75476C55.8886 9.52446 55.5596 9.33618 55.0844 9.33618C54.5359 9.33618 54.1885 9.5874 53.9876 9.83854C53.5488 10.341 53.4758 11.0109 53.4758 11.6179V16.4111H50.8438V7.07544Z" fill="#532322"/>
<path d="M70.091 16.4119H67.4591V15.2817C67.057 15.9513 66.3257 16.726 64.882 16.726C63.6754 16.726 62.7983 16.2863 62.0854 15.449C61.2446 14.486 60.806 13.1465 60.806 11.7021C60.806 10.1534 61.2993 8.87631 62.0854 8.01813C62.7983 7.24372 63.8035 6.76229 64.9186 6.76229C65.8142 6.76229 66.8012 7.09728 67.4591 8.12282V1.15259H70.0911V16.4118L70.091 16.4119ZM64.1507 9.9859C63.7668 10.4047 63.511 11.0117 63.511 11.7652C63.511 12.456 63.7668 13.0627 64.1507 13.4816C64.5528 13.9212 65.0647 14.1304 65.5217 14.1304C66.0149 14.1304 66.6 13.9001 67.0204 13.4398C67.3312 13.1048 67.6236 12.5396 67.6236 11.7653C67.6236 10.9697 67.3494 10.4256 67.0385 10.0488C66.6184 9.54648 66.1248 9.35802 65.5583 9.35802C65.0281 9.35802 64.5711 9.52538 64.1507 9.98598V9.9859Z" fill="#532322"/>
<path d="M80.6391 12.2676H74.5522C74.5522 12.77 74.7166 13.4399 75.0458 13.8585C75.4479 14.3608 75.9964 14.4446 76.3984 14.4446C76.7823 14.4446 77.1844 14.3607 77.4586 14.1725C77.4952 14.1513 77.8059 13.9213 78.0251 13.3978L80.511 13.691C80.1455 15.0095 79.4142 15.7003 78.9391 16.0354C78.1529 16.5794 77.2759 16.7262 76.3619 16.7262C75.1371 16.7262 74.0588 16.4749 73.1083 15.3865C72.3954 14.57 71.8837 13.3351 71.8837 11.786C71.8837 10.4464 72.3039 9.06503 73.1267 8.10206C74.1134 6.97165 75.3382 6.76245 76.2522 6.76245C77.1662 6.76245 78.4821 6.95073 79.4874 8.16474C80.4561 9.33699 80.6391 10.8022 80.6391 11.9533V12.2675V12.2676ZM78.2079 10.4674C78.1895 10.3835 78.0617 9.79777 77.6778 9.37892C77.3855 9.06511 76.965 8.85573 76.4349 8.85573C75.7586 8.85573 75.3563 9.1698 75.1005 9.46278C74.8996 9.71391 74.7166 10.0488 74.6435 10.4674H78.2079Z" fill="white"/>
<path d="M91.1668 16.4119H88.5349V15.2817C88.1328 15.9513 87.4015 16.726 85.9579 16.726C84.7512 16.726 83.8741 16.2863 83.1612 15.449C82.3203 14.486 81.8818 13.1465 81.8818 11.7021C81.8818 10.1534 82.375 8.87631 83.1612 8.01813C83.8741 7.24372 84.8793 6.76229 85.9944 6.76229C86.89 6.76229 87.877 7.09728 88.5349 8.12282V1.15259H91.1669V16.4118L91.1668 16.4119ZM85.2265 9.9859C84.8426 10.4047 84.5868 11.0117 84.5868 11.7652C84.5868 12.456 84.8426 13.0627 85.2265 13.4816C85.6286 13.9212 86.1404 14.1304 86.5974 14.1304C87.0907 14.1304 87.6758 13.9001 88.0962 13.4398C88.4071 13.1048 88.6994 12.5396 88.6994 11.7653C88.6994 10.9697 88.4252 10.4256 88.1143 10.0488C87.6942 9.54648 87.2006 9.35802 86.634 9.35802C86.1039 9.35802 85.6469 9.52538 85.2265 9.98598V9.9859Z" fill="white"/>
</svg>
