<svg width="221" height="254" viewBox="0 0 221 254" fill="none" xmlns="http://www.w3.org/2000/svg">
<path d="M27.2066 32.9764C19.6789 43.7405 8.54218 62.6166 3.13856 88.5338C-1.38058 110.209 -0.184741 128.629 1.5738 140.686C13.3787 149.209 23.0071 150.93 29.4884 150.996C44.6073 151.149 61.7512 142.488 78.1459 142.096C81.5369 142.015 85.0301 142.119 85.0301 142.119C92.1575 142.331 98.0964 143.09 102.401 143.803C98.615 142.746 38.7394 125.044 26.3915 73.7701C22.5206 57.6968 24.5039 43.2404 27.2066 32.9764Z" fill="#EA9127"/>
<path d="M3.47131 148.553C6.17368 161.293 12.2169 180.866 26.8892 200.204C57.7796 240.919 103.499 249.728 115.543 251.665C113.526 240.241 111.911 223.892 114.228 204.517C116.555 185.045 122.021 169.464 126.699 158.806C105.581 147.915 89.0234 146.772 77.6292 147.852C56.1995 149.885 40.7549 160.946 18.1881 154.852C11.6431 153.085 6.62193 150.448 3.47159 148.553L3.47131 148.553Z" fill="#EA9127"/>
<path d="M34.7123 209.248C44.6159 208.93 58.5696 207.233 73.9162 201.023C103.388 189.099 119.951 167.835 126.699 157.94C124.247 163.559 121.953 169.685 119.977 176.318C111.186 205.829 112.488 232.623 115.531 251.663C95.8749 248.214 68.7244 239.983 44.7534 219.026C41.0863 215.82 37.7494 212.54 34.7123 209.248Z" fill="#903518"/>
<path d="M26.6977 32.9764C21.0826 41.218 14.7296 52.2604 9.61425 66.0687C1.96903 86.706 0.186219 105.158 0 117.796C3.11379 114.586 6.25288 112.568 9.01254 111.259C30.8449 100.901 57.0388 121.625 59.0106 123.228C52.9826 118.743 30.4735 100.882 24.9222 69.3244C22.211 53.9123 24.5441 40.9182 26.698 32.9767L26.6977 32.9764Z" fill="#F6D365"/>
<path d="M3.47159 147.529C9.76246 154.782 23.3352 168.273 44.7256 174.673C86.7214 187.236 122.113 161.47 126.699 158.015C120.889 166.867 107.813 184.197 84.6579 196.608C64.0725 207.641 45.0748 209.666 34.8135 210.01C28.9152 203.454 21.5888 193.98 15.2084 181.381C8.6107 168.353 5.26216 156.401 3.47131 147.529H3.47159Z" fill="#CC5520"/>
<path d="M106.667 0C104.173 4.38825 100.897 11.4332 99.5474 20.6208C98.5025 27.7376 98.9551 33.8198 99.6394 38.1833C104.259 36.5552 109.369 34.9723 114.94 33.5631C120.999 32.0303 126.692 30.9336 131.906 30.1482C130.23 25.9083 127.437 20.2157 122.751 14.3265C117.11 7.23552 110.985 2.70025 106.667 0L106.667 0Z" fill="#EA9127"/>
<path d="M214.645 3.47009C210.466 5.75462 204.561 9.60208 198.792 15.7969C192.927 22.0948 189.451 28.4035 187.445 32.8071C192.388 33.9514 197.757 35.4275 203.445 37.3446C209.101 39.2513 214.248 41.3169 218.862 43.389C219.926 38.7388 221.005 31.5505 220.057 22.8587C219.132 14.3785 216.634 7.73794 214.645 3.47009H214.645Z" fill="#EA9127"/>
<path d="M99.5345 44.7999C98.8459 51.8837 98.5878 60.6219 99.6139 70.5361C100.707 81.1035 102.959 90.1073 105.262 97.1938C111.419 82.9761 119.039 74.0881 125.176 68.468C130.773 63.3417 136.969 59.2574 139.507 51.1101C141.457 44.8524 140.406 38.9054 139.125 34.712C133.887 35.2423 128.026 36.1372 121.712 37.6076C113.114 39.6098 105.683 42.2114 99.5345 44.7999Z" fill="#E39334"/>
<path d="M145.015 33.3659C145.831 36.1387 146.813 40.7291 146.299 46.3766C146.104 48.5285 145.627 53.2828 142.961 58.3832C139.593 64.828 136.025 65.5237 127.88 75.0294C125.79 77.4679 124.203 79.5492 123.228 80.8675C135.083 86.8879 146.937 92.9087 158.792 98.9294C164.531 95.8468 190.856 80.9556 195.444 53.1889C196.107 49.1807 196.407 44.3525 195.776 38.808C188.28 36.5919 178.994 34.5161 168.24 33.5475C159.528 32.7628 151.692 32.8708 145.015 33.3665L145.015 33.3659Z" fill="#F6D365"/>
<path d="M219.696 47.408C220.175 51.4778 220.456 55.8829 220.418 60.5822C220.281 77.8628 215.896 92.1923 211.563 102.399C211.543 101.587 211.149 92.1557 202.862 86.7759C194.957 81.644 186.603 84.5705 185.71 84.9007C189.043 81.1775 193.387 75.4351 196.691 67.5618C201.521 56.0522 201.725 45.7179 201.394 39.9177C207.494 42.4146 213.595 44.9114 219.696 47.4083V47.408Z" fill="#EA9127"/>
<path d="M107.607 104.134C115.919 119.226 124.231 134.317 132.542 149.408C137.97 151.496 146.268 153.972 156.637 154.402C167.575 154.855 176.454 152.849 182.15 151.091C191.436 136.553 200.722 122.015 210.008 107.477C206.984 108.293 203.018 109.208 198.315 109.88C194.349 110.447 189.491 110.893 183.114 110.865C170.43 110.808 169.768 108.95 157.947 108.557C147.307 108.204 147.254 109.69 135.168 109.098C127.97 108.746 122.549 107.954 117.688 106.896C113.579 106.002 110.154 104.98 107.608 104.134L107.607 104.134Z" fill="#F6D365"/>
<path d="M131.867 157.94C138.822 166.376 145.778 174.811 152.733 183.247C146.285 192.467 139.2 204.109 132.803 218.18C126.919 231.119 122.973 243.129 120.275 253.398C117.463 235.623 116.012 209.944 123.772 181.087C126.072 172.53 128.884 164.806 131.867 157.94L131.867 157.94Z" fill="#F6D365"/>
<path d="M176.203 163.146C167.425 172.338 156.97 185.016 147.403 201.524C136.398 220.512 130.255 238.205 126.699 251.639C139.76 253.838 150.486 253.592 157.846 252.94C169.968 251.867 174.927 249.523 178.506 246.942C180.027 245.844 184.711 242.465 187.351 236.937C193.028 225.051 184.129 213.975 179.18 191.267C177.767 184.784 176.212 175.226 176.203 163.146H176.203Z" fill="#903518"/>
<path d="M152.733 104.137C149.68 102.234 145.526 99.7466 140.454 97.004C137.736 95.5342 135.599 94.4484 133.27 93.2661C129.83 91.5211 125.333 89.2935 119.967 86.7812C119.225 88.172 118.002 90.9309 118.021 94.5695C118.039 97.7613 119.005 100.228 119.671 101.6C123.816 101.455 128.317 101.47 133.123 101.737C140.411 102.141 146.988 103.043 152.733 104.137L152.733 104.137Z" fill="#532322"/>
<path d="M163.147 105.873C168.909 102.287 175.23 98.6806 182.109 95.203C187.063 92.6977 191.868 90.4811 196.481 88.5168C197.115 90.1733 198.194 93.6277 197.758 98.0275C197.417 101.464 196.294 104.046 195.521 105.518C191.436 105.01 186.958 104.664 182.137 104.605C175.093 104.517 168.714 105.057 163.147 105.873Z" fill="#532322"/>
<path d="M138.848 156.204C143.613 157.482 149.739 158.661 156.913 158.919C164.173 159.179 170.426 158.421 175.296 157.469C168.945 164.568 162.595 171.668 156.245 178.767C150.446 171.246 144.647 163.725 138.848 156.204Z" fill="#532322"/>
<path d="M163.147 105.873C166.275 103.928 170.524 101.399 175.69 98.6479C178.458 97.1735 180.629 96.0943 182.995 94.92C186.49 93.1855 191.055 90.9809 196.49 88.5168C197.111 90.1681 198.099 93.4241 197.805 97.5925C197.548 101.249 196.417 104.001 195.663 105.521C191.622 105.035 187.22 104.705 182.501 104.638C175.345 104.538 168.846 105.063 163.147 105.873L163.147 105.873Z" fill="#532322"/>
<path d="M105.171 97.1935C101.822 86.1138 99.0858 72.4587 98.9359 56.8027C98.8955 52.5903 99.0457 48.5614 99.3368 44.7337C105.313 42.2543 112.465 39.7679 120.693 37.8066C127.297 36.2325 133.412 35.2782 138.848 34.712C137.721 37.0907 135.777 40.7453 132.671 44.6855C123.68 56.09 114.791 57.409 108.97 64.125C104.646 69.1152 100.892 78.381 105.171 97.1938L105.171 97.1935Z" fill="#CC5520"/>
<path d="M186.578 74.6309C181.334 73.4475 172.388 70.6752 163.596 63.6581C149.925 52.7471 145.438 38.6063 144.055 33.3674C151.138 32.8498 159.59 32.7478 169.053 33.6732C179.472 34.6919 188.482 36.6987 195.789 38.8253C196.219 42.6053 196.37 47.5875 195.403 53.2934C193.717 63.2526 189.453 70.5305 186.578 74.6307V74.6309Z" fill="#CC5520"/>
<path d="M200.614 39.9177C206.971 42.4146 213.328 44.9114 219.684 47.4082C220.422 53.5578 220.76 61.0189 219.964 69.4266C218.649 83.3048 214.735 94.5426 211.21 102.399C212.27 99.6537 220.45 77.481 207.781 62.0979C205.966 59.8941 203.359 57.3873 199.595 55.1421C199.922 53.4684 200.201 51.6673 200.4 49.7486C200.775 46.1289 200.787 42.8214 200.615 39.918L200.614 39.9177Z" fill="#CC5520"/>
<path d="M187.445 32.8074C189.386 28.553 192.558 22.8225 197.677 17.03C203.788 10.1141 210.204 5.90538 214.651 3.47009C216.536 7.52468 218.66 13.2338 219.73 20.3156C221.207 30.0962 220.033 38.2524 218.869 43.389C218.172 36.4506 213.768 30.4814 207.484 27.9875C200.591 25.2521 192.597 27.1588 187.445 32.8074Z" fill="#CC5520"/>
<path d="M99.6391 38.1833C98.946 33.7654 98.4753 27.4836 99.6251 20.107C101.02 11.1598 104.222 4.29813 106.667 0C110.519 2.40785 115.447 6.04956 120.234 11.3575C126.536 18.345 130.001 25.3453 131.906 30.1482C127.115 23.9423 118.872 21.4008 111.621 23.7893C105.242 25.8906 100.59 31.4912 99.6393 38.1833H99.6391Z" fill="#CC5520"/>
<path d="M146.052 214.887C134.278 229.109 129.065 243.382 126.699 251.662C132.981 240.353 150.733 211.883 178.061 209.39C179.958 209.217 181.929 209.166 183.974 209.264C182.635 205.453 181.353 201.315 180.204 196.865C179.521 194.221 178.935 191.655 178.431 189.181C170.796 192.979 157.829 200.661 146.052 214.887V214.887Z" fill="#CC5520"/>
<path d="M122.096 187.447C119.1 201.596 117.065 219.079 118.481 238.886C118.845 243.97 119.407 248.813 120.111 253.399C121.23 249.154 122.503 244.744 123.954 240.195C125.933 233.99 128.033 228.19 130.17 222.808C127.479 211.02 124.788 199.233 122.096 187.446V187.447Z" fill="#CC5520"/>
<path d="M132.552 149.41C124.237 134.318 115.922 119.226 107.607 104.134C111.844 111.897 116.769 116.202 120.27 118.632C142.012 133.716 174.402 121.96 191.208 115.84C199.682 112.754 206.221 109.513 210.008 107.517C200.731 122.042 191.454 136.567 182.177 151.093C176.593 152.815 167.997 154.761 157.418 154.429C146.641 154.092 138.052 151.525 132.551 149.41H132.552Z" fill="#EA9127"/>
<path d="M144.662 32.9767C145.578 36.0424 146.719 41.3494 145.855 47.8209C145.568 49.9728 145.023 54.9054 141.9 59.8741C139.453 63.7663 137.562 65.0183 133.107 69.6013C130.535 72.2477 127.02 76.16 123.228 81.4516C127.506 83.1896 132.515 84.7636 138.192 85.7432C157.422 89.061 173.454 83.6879 182.15 79.8739C183.336 78.2357 184.523 76.5975 185.71 74.959C177.515 70.1857 166.601 62.4238 156.418 50.1601C151.436 44.1605 147.604 38.2574 144.662 32.9764L144.662 32.9767Z" fill="#EA9127"/>
<path d="M145.553 185.265C135.555 191.556 123.555 187.035 121.55 186.245C121.467 190.728 121.471 195.331 121.577 200.049C121.88 213.524 122.97 226.137 124.545 237.78C128.756 225.612 134.676 211.896 143.119 197.623C146.275 192.288 149.506 187.343 152.733 182.775C152.104 182.019 151.475 181.262 150.846 180.505C149.513 182.173 147.784 183.861 145.553 185.265Z" fill="#EA9127"/>
<path d="M126.699 251.661C129.397 242.995 135.092 228.571 147.28 214.248C158.677 200.856 170.953 193.189 178.767 189.103C177.776 184.064 176.967 178.435 176.55 172.289C176.333 169.098 176.24 166.045 176.241 163.146C168.524 171.224 160.018 181.456 151.961 194.074C138.187 215.646 130.815 236.219 126.699 251.661V251.661Z" fill="#EA9127"/>
<path d="M107.745 0C106.432 2.37176 105.078 5.20803 103.89 8.4995C101.962 13.8396 101.075 18.705 100.665 22.5629C100.862 21.421 101.949 15.7662 106.605 12.8652C111.914 9.55743 119.768 11.1373 124.964 17.3582C122.431 13.6594 118.978 9.37473 114.356 5.21929C112.078 3.17042 109.842 1.44727 107.745 0L107.745 0Z" fill="#903518"/>
<path d="M214.804 3.47009C216.012 5.8157 217.247 8.66107 218.252 11.98C219.906 17.4415 220.372 22.3211 220.422 26.033C220.34 25.0678 219.738 19.0905 214.897 15.8083C209.689 12.2775 201.66 13.277 196.123 18.8797C198.748 15.6627 202.358 11.889 207.17 8.31453C209.845 6.32801 212.436 4.74037 214.805 3.47009H214.804Z" fill="#903518"/>
<path d="M181.988 151.077C189.014 140.059 196.04 129.041 203.066 118.023C196.843 124.837 184.118 136.87 164.218 143.924C151.313 148.498 139.817 149.411 131.906 149.376C137.808 151.634 147.167 154.389 158.892 154.469C168.544 154.535 176.491 152.765 181.988 151.077Z" fill="#CC5520"/>
</svg>
